<?xml version="1.0" encoding="UTF-8"?><svg id="Layer_2" xmlns="http://www.w3.org/2000/svg" xmlns:xlink="http://www.w3.org/1999/xlink" viewBox="0 0 152.14 165.47"><defs><style>.cls-1{fill:url(#linear-gradient);}.cls-1,.cls-2{stroke-width:0px;}.cls-3{fill:none;stroke:rgba(0,149,255,.08);}.cls-2{fill:rgba(0,149,255,.02);}</style><linearGradient id="linear-gradient" x1="76.07" y1="130.86" x2="76.07" y2="44.01" gradientTransform="translate(0 167.47) scale(1 -1)" gradientUnits="userSpaceOnUse"><stop offset="0" stop-color="#14f2fe"/><stop offset=".33" stop-color="#8839f7"/><stop offset=".51" stop-color="#8c3af5"/><stop offset="1" stop-color="#fb50b6"/></linearGradient></defs><g id="Layer_1-2"><path class="cls-2" d="m20.29,0h111.57c11.2,0,20.29,9.88,20.29,22.06v121.35c0,12.19-9.08,22.06-20.29,22.06H20.29c-11.2,0-20.29-9.88-20.29-22.06V22.06C0,9.88,9.08,0,20.29,0Z"/><path class="cls-1" d="m84,122.72c-.1,0-.18-.03-.29-.06-4.12-.96-7.15-4.77-7.38-9.33-.42-8.2.37-19.15,3.78-28.83,2.82.77,5.92,1.45,9.29,1.99,1.85.31,3.63.57,5.37.74-1.49,7.6-.99,16.17.39,23.58,1.33,7.18-4.56,13.48-11.17,11.92Zm11.58-80.49c-10.51-1.73-24.34,7.09-30.6,15.97,8.37,3.97,15.78,11.38,16.43,17.93.21,1.93-.13,3.8-.99,5.53,2.92.79,6.05,1.47,9.37,2.01,16.25,2.7,29.74,1.08,31.67-7.43,2.32-10.04-12-31.72-25.88-34.02Zm-30.86,50.28c-2.3.79-4.8,1.48-7.51,2.1-1.49.34-2.92.62-4.3.85,1.38,5.96,1.3,12.71.5,18.58-.81,5.87,4.25,10.7,9.52,9.14.08-.03.16-.06.23-.08,3.29-.96,5.61-4.2,5.61-7.92.03-6.5-1.02-15.12-4.04-22.67Zm-8.03-.68c-13.07,2.95-24.05,2.27-25.96-4.54-2.27-8.03,8.45-26.27,19.59-28.77,11.16-2.53,27.65,9.59,28.51,17.93.73,7.09-9.1,12.46-22.15,15.38Zm-17.71-12.17c-.1-1.08-.94-1.79-1.88-1.56-.94.2-1.62,1.25-1.51,2.36.08,1.08.91,1.79,1.85,1.56.94-.2,1.62-1.25,1.54-2.36Zm3.52-10.3c-1.51.28-3.13,2.07-3.57,4-.47,1.93.37,3.26,1.88,2.98,1.51-.26,3.13-2.04,3.6-3.97.47-1.93-.39-3.26-1.9-3.01Z"/><path class="cls-3" d="m20.29,2.76h111.57c9.8,0,17.75,8.64,17.75,19.31v121.35c0,10.66-7.95,19.31-17.75,19.31H20.29c-9.8,0-17.75-8.64-17.75-19.31V22.06C2.54,11.4,10.48,2.76,20.29,2.76Z"/></g></svg>